<mxfile host="Electron" modified="2024-05-31T07:56:42.110Z" agent="Mozilla/5.0 (Windows NT 10.0; Win64; x64) AppleWebKit/537.36 (KHTML, like Gecko) draw.io/23.0.2 Chrome/120.0.6099.109 Electron/28.1.0 Safari/537.36" etag="TMFJLIK-U2fVezFbne0t" version="23.0.2" type="device" pages="10">
  <diagram name="login" id="w4DnjER3zhb4D0M0fqQI">
    <mxGraphModel dx="1034" dy="511" grid="1" gridSize="10" guides="1" tooltips="1" connect="1" arrows="1" fold="1" page="1" pageScale="1" pageWidth="850" pageHeight="1100" math="0" shadow="0">
      <root>
        <mxCell id="0" />
        <mxCell id="1" parent="0" />
        <mxCell id="OcdA7Y0QAOKrJaV1DLB7-1" value="" style="rounded=0;whiteSpace=wrap;html=1;movable=1;resizable=1;rotatable=1;deletable=1;editable=1;locked=0;connectable=1;" parent="1" vertex="1">
          <mxGeometry x="200" y="40" width="440" height="240" as="geometry" />
        </mxCell>
        <mxCell id="OcdA7Y0QAOKrJaV1DLB7-2" value="" style="rounded=0;whiteSpace=wrap;html=1;movable=1;resizable=1;rotatable=1;deletable=1;editable=1;locked=0;connectable=1;" parent="1" vertex="1">
          <mxGeometry x="312" y="85" width="227" height="150" as="geometry" />
        </mxCell>
        <mxCell id="OcdA7Y0QAOKrJaV1DLB7-3" value="&lt;font style=&quot;&quot;&gt;&lt;span style=&quot;font-size: 10px;&quot;&gt;&lt;b&gt;Siakad&lt;/b&gt;&lt;/span&gt;&lt;br&gt;&lt;span style=&quot;font-size: 10px;&quot;&gt;SMKN1 Rawajitu Selatan&lt;/span&gt;&lt;br&gt;&lt;br&gt;&lt;font style=&quot;font-size: 8px;&quot;&gt;Silahkan login pada form di bawah ini&lt;/font&gt;&lt;br&gt;&lt;/font&gt;" style="text;html=1;strokeColor=none;fillColor=none;align=center;verticalAlign=middle;whiteSpace=wrap;rounded=0;" parent="1" vertex="1">
          <mxGeometry x="351" y="110" width="147" height="20" as="geometry" />
        </mxCell>
        <mxCell id="OcdA7Y0QAOKrJaV1DLB7-4" value="&lt;font style=&quot;font-size: 6px;&quot;&gt;Username&lt;/font&gt;" style="rounded=0;whiteSpace=wrap;html=1;align=left;shadow=0;" parent="1" vertex="1">
          <mxGeometry x="320" y="157" width="210" height="10" as="geometry" />
        </mxCell>
        <mxCell id="OcdA7Y0QAOKrJaV1DLB7-5" value="&lt;font style=&quot;font-size: 6px;&quot;&gt;Password&amp;nbsp;&lt;/font&gt;" style="rounded=0;whiteSpace=wrap;html=1;align=left;shadow=0;" parent="1" vertex="1">
          <mxGeometry x="320" y="174" width="210" height="10" as="geometry" />
        </mxCell>
        <mxCell id="OcdA7Y0QAOKrJaV1DLB7-6" value="&lt;font style=&quot;font-size: 8px;&quot;&gt;Mauk&lt;/font&gt;" style="rounded=1;whiteSpace=wrap;html=1;fillColor=#CCCCCC;" parent="1" vertex="1">
          <mxGeometry x="480" y="205" width="50" height="20" as="geometry" />
        </mxCell>
        <mxCell id="OcdA7Y0QAOKrJaV1DLB7-7" value="&lt;span style=&quot;font-size: 8px;&quot;&gt;Daftar&lt;/span&gt;" style="rounded=1;whiteSpace=wrap;html=1;fillColor=#CCCCCC;" parent="1" vertex="1">
          <mxGeometry x="320" y="205" width="50" height="20" as="geometry" />
        </mxCell>
      </root>
    </mxGraphModel>
  </diagram>
  <diagram id="DFFAlSWQkTnlyfUdj179" name="beranda">
    <mxGraphModel dx="1034" dy="511" grid="1" gridSize="10" guides="1" tooltips="1" connect="1" arrows="1" fold="1" page="1" pageScale="1" pageWidth="850" pageHeight="1100" math="0" shadow="0">
      <root>
        <mxCell id="0" />
        <mxCell id="1" parent="0" />
        <mxCell id="oVM7qClv3wtlNOxDvoEB-1" value="" style="rounded=0;whiteSpace=wrap;html=1;movable=1;resizable=1;rotatable=1;deletable=1;editable=1;locked=0;connectable=1;" parent="1" vertex="1">
          <mxGeometry x="190" y="40" width="580" height="310" as="geometry" />
        </mxCell>
        <mxCell id="oVM7qClv3wtlNOxDvoEB-2" value="Gambar" style="rounded=0;whiteSpace=wrap;html=1;movable=1;resizable=1;rotatable=1;deletable=1;editable=1;locked=0;connectable=1;" parent="1" vertex="1">
          <mxGeometry x="220" y="50" width="400" height="25" as="geometry" />
        </mxCell>
        <mxCell id="oVM7qClv3wtlNOxDvoEB-5" value="&lt;font style=&quot;font-size: 6px;&quot;&gt;Beranda&lt;/font&gt;" style="rounded=0;whiteSpace=wrap;html=1;align=left;shadow=0;" parent="1" vertex="1">
          <mxGeometry x="220" y="92" width="210" height="10" as="geometry" />
        </mxCell>
        <mxCell id="aFhnWrTN27MRpx62PS63-3" value="&lt;font style=&quot;font-size: 8px;&quot;&gt;Selamat datang di SMKN 1 Rawajitu Selatan!&lt;br style=&quot;box-sizing: border-box; color: rgb(51, 51, 51); font-family: &amp;quot;Helvetica Neue&amp;quot;, Helvetica, Arial, sans-serif; background-color: rgb(255, 255, 255);&quot;&gt;&lt;span style=&quot;color: rgb(51, 51, 51); font-family: &amp;quot;Helvetica Neue&amp;quot;, Helvetica, Arial, sans-serif; background-color: rgb(255, 255, 255);&quot;&gt;SMKN 1 Rawajitu Selatan hadir sebagai lembaga pendidikan yang berkomitmen untuk memberikan pengalaman belajar terbaik bagi para siswa.&lt;br&gt;&amp;nbsp;Dengan staf pengajar yang berkualitas dan fasilitas modern, kami bertekad untuk mempersiapkan generasi masa depan yang siap bersaing di era global.&lt;/span&gt;&lt;br style=&quot;box-sizing: border-box; color: rgb(51, 51, 51); font-family: &amp;quot;Helvetica Neue&amp;quot;, Helvetica, Arial, sans-serif; background-color: rgb(255, 255, 255);&quot;&gt;&lt;span style=&quot;box-sizing: border-box; font-weight: 700; color: rgb(51, 51, 51); font-family: &amp;quot;Helvetica Neue&amp;quot;, Helvetica, Arial, sans-serif; background-color: rgb(255, 255, 255);&quot;&gt;Informasi Sekolah:&lt;br style=&quot;box-sizing: border-box;&quot;&gt;- Nama Sekolah: SMKN 1 Rawajitu Selatan&lt;br style=&quot;box-sizing: border-box;&quot;&gt;- NPSN: 10809321&lt;br style=&quot;box-sizing: border-box;&quot;&gt;- NSS: 00000000000000&lt;br style=&quot;box-sizing: border-box;&quot;&gt;- Alamat Sekolah: Jl. Raya Rawajitu Desa Medasari Kec.Rawajitu Selatan Kab. Tulang Bawang Provinsi Lampung&lt;br style=&quot;box-sizing: border-box;&quot;&gt;- Kode Pos: 34595&lt;br style=&quot;box-sizing: border-box;&quot;&gt;- No Telepon: 087738486654&lt;br style=&quot;box-sizing: border-box;&quot;&gt;- Kelurahan: Medasari&lt;br style=&quot;box-sizing: border-box;&quot;&gt;- Kecamatan: Kec. Rawajitu Selatan&lt;br style=&quot;box-sizing: border-box;&quot;&gt;- Kabupaten / Kota: Kab. Tulang Bawang&lt;br style=&quot;box-sizing: border-box;&quot;&gt;- Provinsi: Lampung&lt;/span&gt;&lt;br style=&quot;box-sizing: border-box; color: rgb(51, 51, 51); font-family: &amp;quot;Helvetica Neue&amp;quot;, Helvetica, Arial, sans-serif; background-color: rgb(255, 255, 255);&quot;&gt;&lt;span style=&quot;color: rgb(51, 51, 51); font-family: &amp;quot;Helvetica Neue&amp;quot;, Helvetica, Arial, sans-serif; background-color: rgb(255, 255, 255);&quot;&gt;Kunjungi juga website resmi kami di siakadsmkn1rawajitu.my.id untuk informasi lebih lanjut.&lt;/span&gt;&lt;br style=&quot;box-sizing: border-box; color: rgb(51, 51, 51); font-family: &amp;quot;Helvetica Neue&amp;quot;, Helvetica, Arial, sans-serif; background-color: rgb(255, 255, 255);&quot;&gt;&lt;span style=&quot;box-sizing: border-box; font-weight: 700; color: rgb(51, 51, 51); font-family: &amp;quot;Helvetica Neue&amp;quot;, Helvetica, Arial, sans-serif; background-color: rgb(255, 255, 255);&quot;&gt;Bergabunglah dengan kami untuk menemukan potensi diri Anda dan membentuk masa depan yang cerah!&lt;/span&gt;&lt;/font&gt;" style="text;html=1;align=left;verticalAlign=middle;resizable=0;points=[];autosize=1;strokeColor=none;fillColor=none;" parent="1" vertex="1">
          <mxGeometry x="217" y="104" width="570" height="240" as="geometry" />
        </mxCell>
        <mxCell id="HwUGqPIpHBIIEZDQA6zZ-1" value="&lt;font style=&quot;font-size: 8px;&quot;&gt;Beranda Aturan &amp;amp; Prosedur Jadwal Pelaksanaan Alur Pendaftaran Daftar Siswa Baru Daftar Ulang&lt;/font&gt;" style="text;html=1;align=center;verticalAlign=middle;resizable=0;points=[];autosize=1;strokeColor=none;fillColor=none;" parent="1" vertex="1">
          <mxGeometry x="230" y="67" width="370" height="30" as="geometry" />
        </mxCell>
      </root>
    </mxGraphModel>
  </diagram>
  <diagram id="jCD0bZ0PUMuWUXtoi-yK" name="aturan ">
    <mxGraphModel dx="1034" dy="511" grid="1" gridSize="10" guides="1" tooltips="1" connect="1" arrows="1" fold="1" page="1" pageScale="1" pageWidth="850" pageHeight="1100" math="0" shadow="0">
      <root>
        <mxCell id="0" />
        <mxCell id="1" parent="0" />
        <mxCell id="oyT1hDWtTUGXL5M5K14--1" value="" style="rounded=0;whiteSpace=wrap;html=1;movable=1;resizable=1;rotatable=1;deletable=1;editable=1;locked=0;connectable=1;" parent="1" vertex="1">
          <mxGeometry x="190" y="40" width="470" height="410" as="geometry" />
        </mxCell>
        <mxCell id="oyT1hDWtTUGXL5M5K14--2" value="Gambar" style="rounded=0;whiteSpace=wrap;html=1;movable=1;resizable=1;rotatable=1;deletable=1;editable=1;locked=0;connectable=1;" parent="1" vertex="1">
          <mxGeometry x="220" y="50" width="400" height="25" as="geometry" />
        </mxCell>
        <mxCell id="oyT1hDWtTUGXL5M5K14--3" value="&lt;font style=&quot;font-size: 6px;&quot;&gt;Prosedur Pendaftaran Siswa Baru&lt;/font&gt;" style="rounded=0;whiteSpace=wrap;html=1;align=left;shadow=0;" parent="1" vertex="1">
          <mxGeometry x="220" y="92" width="210" height="10" as="geometry" />
        </mxCell>
        <mxCell id="oyT1hDWtTUGXL5M5K14--4" value="&lt;font style=&quot;font-size: 8px;&quot;&gt;Beranda Aturan &amp;amp; Prosedur Jadwal Pelaksanaan Alur Pendaftaran Daftar Siswa Baru Daftar Ulang&lt;/font&gt;" style="text;html=1;align=center;verticalAlign=middle;resizable=0;points=[];autosize=1;strokeColor=none;fillColor=none;" parent="1" vertex="1">
          <mxGeometry x="230" y="67" width="370" height="30" as="geometry" />
        </mxCell>
        <mxCell id="dZDaZTRUjc852QasFyn1-1" value="&lt;font style=&quot;font-size: 6px;&quot;&gt;Aturan dan Prosedur Pendaftaran Siswa Baru di SMKN 1 Rawajitu Selatan&lt;br style=&quot;box-sizing: border-box; color: rgb(51, 51, 51); font-family: &amp;quot;Helvetica Neue&amp;quot;, Helvetica, Arial, sans-serif; background-color: rgb(255, 255, 255);&quot;&gt;&lt;span style=&quot;box-sizing: border-box; font-weight: 700; color: rgb(51, 51, 51); font-family: &amp;quot;Helvetica Neue&amp;quot;, Helvetica, Arial, sans-serif; background-color: rgb(255, 255, 255);&quot;&gt;1. Pengumuman Pendaftaran:&lt;/span&gt;&lt;br style=&quot;box-sizing: border-box; color: rgb(51, 51, 51); font-family: &amp;quot;Helvetica Neue&amp;quot;, Helvetica, Arial, sans-serif; background-color: rgb(255, 255, 255);&quot;&gt;&lt;span style=&quot;color: rgb(51, 51, 51); font-family: &amp;quot;Helvetica Neue&amp;quot;, Helvetica, Arial, sans-serif; background-color: rgb(255, 255, 255);&quot;&gt;Pengumuman pendaftaran siswa baru akan disampaikan melalui website resmi sekolah, media sosial, dan papan pengumuman di sekolah. &lt;br&gt;Informasi terkait tanggal pendaftaran, persyaratan, dan jalur pendaftaran akan diumumkan secara jelas.&lt;/span&gt;&lt;br style=&quot;box-sizing: border-box; color: rgb(51, 51, 51); font-family: &amp;quot;Helvetica Neue&amp;quot;, Helvetica, Arial, sans-serif; background-color: rgb(255, 255, 255);&quot;&gt;&lt;span style=&quot;box-sizing: border-box; font-weight: 700; color: rgb(51, 51, 51); font-family: &amp;quot;Helvetica Neue&amp;quot;, Helvetica, Arial, sans-serif; background-color: rgb(255, 255, 255);&quot;&gt;2. Pendaftaran:&lt;/span&gt;&lt;br style=&quot;box-sizing: border-box; color: rgb(51, 51, 51); font-family: &amp;quot;Helvetica Neue&amp;quot;, Helvetica, Arial, sans-serif; background-color: rgb(255, 255, 255);&quot;&gt;&lt;span style=&quot;color: rgb(51, 51, 51); font-family: &amp;quot;Helvetica Neue&amp;quot;, Helvetica, Arial, sans-serif; background-color: rgb(255, 255, 255);&quot;&gt;Calon siswa diharapkan untuk melakukan pendaftaran sesuai dengan ketentuan yang telah diumumkan. Pendaftaran dapat dilakukan secara online melalui &lt;br&gt;website siakadsmkn1rawajitu.my.id atau dengan mengunjungi sekretariat sekolah.&lt;/span&gt;&lt;br style=&quot;box-sizing: border-box; color: rgb(51, 51, 51); font-family: &amp;quot;Helvetica Neue&amp;quot;, Helvetica, Arial, sans-serif; background-color: rgb(255, 255, 255);&quot;&gt;&lt;span style=&quot;box-sizing: border-box; font-weight: 700; color: rgb(51, 51, 51); font-family: &amp;quot;Helvetica Neue&amp;quot;, Helvetica, Arial, sans-serif; background-color: rgb(255, 255, 255);&quot;&gt;3. Seleksi Sesuai dengan Jalur Pendaftaran:&lt;/span&gt;&lt;br style=&quot;box-sizing: border-box; color: rgb(51, 51, 51); font-family: &amp;quot;Helvetica Neue&amp;quot;, Helvetica, Arial, sans-serif; background-color: rgb(255, 255, 255);&quot;&gt;&lt;span style=&quot;color: rgb(51, 51, 51); font-family: &amp;quot;Helvetica Neue&amp;quot;, Helvetica, Arial, sans-serif; background-color: rgb(255, 255, 255);&quot;&gt;Setelah melakukan pendaftaran, calon siswa akan menjalani seleksi sesuai dengan jalur pendaftaran yang dipilih. Informasi terkait jadwal pelaksanaan tes &lt;br&gt;masuk dan alur pendaftaran dapat dilihat di halaman&amp;nbsp;&lt;/span&gt;&lt;span style=&quot;box-sizing: border-box; font-weight: 700; color: rgb(51, 51, 51); font-family: &amp;quot;Helvetica Neue&amp;quot;, Helvetica, Arial, sans-serif; background-color: rgb(255, 255, 255);&quot;&gt;JADWAL PELAKSANAAN TES MASUK DAN ALUR PENDAFTARAN&lt;/span&gt;&lt;span style=&quot;color: rgb(51, 51, 51); font-family: &amp;quot;Helvetica Neue&amp;quot;, Helvetica, Arial, sans-serif; background-color: rgb(255, 255, 255);&quot;&gt;&amp;nbsp;yang ada di website resmi sekolah.&lt;/span&gt;&lt;br style=&quot;box-sizing: border-box; color: rgb(51, 51, 51); font-family: &amp;quot;Helvetica Neue&amp;quot;, Helvetica, Arial, sans-serif; background-color: rgb(255, 255, 255);&quot;&gt;&lt;span style=&quot;box-sizing: border-box; font-weight: 700; color: rgb(51, 51, 51); font-family: &amp;quot;Helvetica Neue&amp;quot;, Helvetica, Arial, sans-serif; background-color: rgb(255, 255, 255);&quot;&gt;4. Pengumuman Penetapan Peserta Didik Baru:&lt;/span&gt;&lt;br style=&quot;box-sizing: border-box; color: rgb(51, 51, 51); font-family: &amp;quot;Helvetica Neue&amp;quot;, Helvetica, Arial, sans-serif; background-color: rgb(255, 255, 255);&quot;&gt;&lt;span style=&quot;color: rgb(51, 51, 51); font-family: &amp;quot;Helvetica Neue&amp;quot;, Helvetica, Arial, sans-serif; background-color: rgb(255, 255, 255);&quot;&gt;Pengumuman penetapan peserta didik baru akan disampaikan melalui papan pengumuman di sekolah. Calon siswa yang dinyatakan lolos seleksi akan &lt;br&gt;mendapatkan informasi lebih lanjut melalui whatsapp terkait proses selanjutnya.&lt;/span&gt;&lt;br style=&quot;box-sizing: border-box; color: rgb(51, 51, 51); font-family: &amp;quot;Helvetica Neue&amp;quot;, Helvetica, Arial, sans-serif; background-color: rgb(255, 255, 255);&quot;&gt;&lt;span style=&quot;box-sizing: border-box; font-weight: 700; color: rgb(51, 51, 51); font-family: &amp;quot;Helvetica Neue&amp;quot;, Helvetica, Arial, sans-serif; background-color: rgb(255, 255, 255);&quot;&gt;5. Pembayaran dan Kode Akses:&lt;/span&gt;&lt;br style=&quot;box-sizing: border-box; color: rgb(51, 51, 51); font-family: &amp;quot;Helvetica Neue&amp;quot;, Helvetica, Arial, sans-serif; background-color: rgb(255, 255, 255);&quot;&gt;&lt;span style=&quot;color: rgb(51, 51, 51); font-family: &amp;quot;Helvetica Neue&amp;quot;, Helvetica, Arial, sans-serif; background-color: rgb(255, 255, 255);&quot;&gt;Setelah dinyatakan lulus, peserta wajib melakukan pembayaran pendaftaran sebesar Rp 50.000 ke rekening sekolah dan melakukan konfirmasi ke panitia &lt;br&gt;melalui WhatsApp. Setelah terkonfirmasi, panitia akan mengirimkan kode akses sekali pakai yang harus dimasukkan ke halaman DAFTAR ULANG agar bisa &lt;br&gt;melanjutkan langkah berikutnya.&lt;/span&gt;&lt;br style=&quot;box-sizing: border-box; color: rgb(51, 51, 51); font-family: &amp;quot;Helvetica Neue&amp;quot;, Helvetica, Arial, sans-serif; background-color: rgb(255, 255, 255);&quot;&gt;&lt;span style=&quot;box-sizing: border-box; font-weight: 700; color: rgb(51, 51, 51); font-family: &amp;quot;Helvetica Neue&amp;quot;, Helvetica, Arial, sans-serif; background-color: rgb(255, 255, 255);&quot;&gt;6. Daftar Ulang:&lt;/span&gt;&lt;br style=&quot;box-sizing: border-box; color: rgb(51, 51, 51); font-family: &amp;quot;Helvetica Neue&amp;quot;, Helvetica, Arial, sans-serif; background-color: rgb(255, 255, 255);&quot;&gt;&lt;span style=&quot;color: rgb(51, 51, 51); font-family: &amp;quot;Helvetica Neue&amp;quot;, Helvetica, Arial, sans-serif; background-color: rgb(255, 255, 255);&quot;&gt;Peserta didik baru yang telah mendapatkan kode akses diharapkan untuk melakukan proses&amp;nbsp;&lt;/span&gt;&lt;span style=&quot;box-sizing: border-box; font-weight: 700; color: rgb(51, 51, 51); font-family: &amp;quot;Helvetica Neue&amp;quot;, Helvetica, Arial, sans-serif; background-color: rgb(255, 255, 255);&quot;&gt;DAFTAR ULANG&lt;/span&gt;&lt;span style=&quot;color: rgb(51, 51, 51); font-family: &amp;quot;Helvetica Neue&amp;quot;, Helvetica, Arial, sans-serif; background-color: rgb(255, 255, 255);&quot;&gt;&amp;nbsp;pada website sekolah. Informasi terkait&lt;br&gt;&amp;nbsp;prosedur dan persyaratan daftar ulang juga akan disampaikan melalui website sekolah.&lt;/span&gt;&lt;br style=&quot;box-sizing: border-box; color: rgb(51, 51, 51); font-family: &amp;quot;Helvetica Neue&amp;quot;, Helvetica, Arial, sans-serif; background-color: rgb(255, 255, 255);&quot;&gt;&lt;span style=&quot;color: rgb(51, 51, 51); font-family: &amp;quot;Helvetica Neue&amp;quot;, Helvetica, Arial, sans-serif; background-color: rgb(255, 255, 255);&quot;&gt;Kami mengimbau calon pendaftar untuk memeriksa halaman JADWAL PELAKSANAAN TES MASUK DAN ALUR PENDAFTARAN yang tersedia di &lt;br&gt;website resmi sekolah untuk mendapatkan informasi terkini mengenai proses pendaftaran. Jika terdapat pertanyaan lebih lanjut, jangan ragu untuk &lt;br&gt;menghubungi sekretariat sekolah. Terima kasih atas minat Anda untuk bergabung dengan kami di SMKN 1 Rawajitu Selatan.&lt;/span&gt;&lt;/font&gt;" style="text;html=1;align=left;verticalAlign=middle;resizable=0;points=[];autosize=1;strokeColor=none;fillColor=none;" parent="1" vertex="1">
          <mxGeometry x="220" y="110" width="450" height="340" as="geometry" />
        </mxCell>
      </root>
    </mxGraphModel>
  </diagram>
  <diagram id="mpff5uBO-t5mDI0mXAgm" name="jadwal">
    <mxGraphModel dx="604" dy="496" grid="1" gridSize="10" guides="1" tooltips="1" connect="1" arrows="1" fold="1" page="1" pageScale="1" pageWidth="850" pageHeight="1100" math="0" shadow="0">
      <root>
        <mxCell id="0" />
        <mxCell id="1" parent="0" />
        <mxCell id="8TKLz1YUTmLe7h2UN5TK-1" value="" style="rounded=0;whiteSpace=wrap;html=1;movable=1;resizable=1;rotatable=1;deletable=1;editable=1;locked=0;connectable=1;" parent="1" vertex="1">
          <mxGeometry x="190" y="40" width="470" height="360" as="geometry" />
        </mxCell>
        <mxCell id="8TKLz1YUTmLe7h2UN5TK-2" value="Gambar" style="rounded=0;whiteSpace=wrap;html=1;movable=1;resizable=1;rotatable=1;deletable=1;editable=1;locked=0;connectable=1;" parent="1" vertex="1">
          <mxGeometry x="220" y="50" width="400" height="25" as="geometry" />
        </mxCell>
        <mxCell id="8TKLz1YUTmLe7h2UN5TK-3" value="&lt;font style=&quot;font-size: 6px;&quot;&gt;Jadwal Pelaksanaan tes masuk&lt;/font&gt;" style="rounded=0;whiteSpace=wrap;html=1;align=left;shadow=0;" parent="1" vertex="1">
          <mxGeometry x="220" y="92" width="210" height="10" as="geometry" />
        </mxCell>
        <mxCell id="8TKLz1YUTmLe7h2UN5TK-5" value="&lt;font style=&quot;font-size: 6px;&quot;&gt;Jadwal Pelaksanaan Tes Masuk Siswa Baru Tahun Ajaran 2024/2025&lt;br style=&quot;box-sizing: border-box;&quot;&gt;Tanggal Pendaftaran: 1 Februari 2024 - 28 Februari 2024&lt;br style=&quot;box-sizing: border-box;&quot;&gt;Jadwal Tes Masuk:&lt;br style=&quot;box-sizing: border-box;&quot;&gt;Tes Tulis:&lt;br style=&quot;box-sizing: border-box;&quot;&gt;Hari/Tanggal: Sabtu, 15 Maret 2024&lt;br style=&quot;box-sizing: border-box;&quot;&gt;Waktu: 08.00 - 10.00 WIB&lt;br style=&quot;box-sizing: border-box;&quot;&gt;Tempat: Aula Utama SMKN1 Rawajitu Selatan&lt;br style=&quot;box-sizing: border-box;&quot;&gt;Tes Keterampilan:&lt;br style=&quot;box-sizing: border-box;&quot;&gt;Hari/Tanggal: Minggu, 16 Maret 2024&lt;br style=&quot;box-sizing: border-box;&quot;&gt;Waktu: 08.00 - 12.00 WIB&lt;br style=&quot;box-sizing: border-box;&quot;&gt;Tempat: Ruang Laboratorium Jurusan (sesuai dengan jurusan yang diminati)&lt;br style=&quot;box-sizing: border-box;&quot;&gt;Pengumuman Hasil Seleksi:&lt;br style=&quot;box-sizing: border-box;&quot;&gt;Tanggal Pengumuman: Senin, 25 Maret 2024&lt;br style=&quot;box-sizing: border-box;&quot;&gt;Pengumuman akan dipublikasikan melalui WA.&lt;br style=&quot;box-sizing: border-box;&quot;&gt;Daftar Ulang:&lt;br style=&quot;box-sizing: border-box;&quot;&gt;Tanggal Daftar Ulang: 26 Maret 2024 - 30 Maret 2024&lt;br style=&quot;box-sizing: border-box;&quot;&gt;Calon siswa yang diterima melakukan daftar ulang dengan membayar biaya pendaftaran dan melengkapi persyaratan administrasi tambahan.&lt;br style=&quot;box-sizing: border-box;&quot;&gt;Catatan:&lt;br style=&quot;box-sizing: border-box;&quot;&gt;Jadwal di atas dapat berubah sewaktu-waktu tanpa pemberitahuan terlebih dahulu.&lt;br style=&quot;box-sizing: border-box;&quot;&gt;Informasi lebih lanjut dapat diperoleh melalui kontak admin sekolah.&lt;/font&gt;" style="text;html=1;align=left;verticalAlign=middle;resizable=0;points=[];autosize=1;strokeColor=none;fillColor=none;" parent="1" vertex="1">
          <mxGeometry x="220" y="102" width="400" height="300" as="geometry" />
        </mxCell>
        <mxCell id="PoT9SjknuAqufaHPfrPa-1" value="&lt;font style=&quot;font-size: 8px;&quot;&gt;Beranda Aturan &amp;amp; Prosedur Jadwal Pelaksanaan Alur Pendaftaran Daftar Siswa Baru Daftar Ulang&lt;/font&gt;" style="text;html=1;align=center;verticalAlign=middle;resizable=0;points=[];autosize=1;strokeColor=none;fillColor=none;" parent="1" vertex="1">
          <mxGeometry x="230" y="67" width="370" height="30" as="geometry" />
        </mxCell>
      </root>
    </mxGraphModel>
  </diagram>
  <diagram id="hE9H0YIQ5V0r4T1_K3Ad" name="alur">
    <mxGraphModel dx="1034" dy="511" grid="1" gridSize="10" guides="1" tooltips="1" connect="1" arrows="1" fold="1" page="1" pageScale="1" pageWidth="850" pageHeight="1100" math="0" shadow="0">
      <root>
        <mxCell id="0" />
        <mxCell id="1" parent="0" />
        <mxCell id="5a-V1YSres0De7QOIOS2-1" value="" style="rounded=0;whiteSpace=wrap;html=1;movable=1;resizable=1;rotatable=1;deletable=1;editable=1;locked=0;connectable=1;" parent="1" vertex="1">
          <mxGeometry x="190" y="40" width="570" height="510" as="geometry" />
        </mxCell>
        <mxCell id="5a-V1YSres0De7QOIOS2-2" value="Gambar" style="rounded=0;whiteSpace=wrap;html=1;movable=1;resizable=1;rotatable=1;deletable=1;editable=1;locked=0;connectable=1;" parent="1" vertex="1">
          <mxGeometry x="270" y="50" width="400" height="25" as="geometry" />
        </mxCell>
        <mxCell id="5a-V1YSres0De7QOIOS2-3" value="&lt;font style=&quot;font-size: 6px;&quot;&gt;ALUR PENDAFTARAN&lt;/font&gt;" style="rounded=0;whiteSpace=wrap;html=1;align=left;shadow=0;" parent="1" vertex="1">
          <mxGeometry x="220" y="92" width="210" height="10" as="geometry" />
        </mxCell>
        <mxCell id="5a-V1YSres0De7QOIOS2-5" value="&lt;font style=&quot;font-size: 6px;&quot;&gt;Selamat Datang di Sistem Pendaftaran Siswa Baru&lt;br style=&quot;box-sizing: border-box; color: rgb(51, 51, 51); font-family: &amp;quot;Helvetica Neue&amp;quot;, Helvetica, Arial, sans-serif; background-color: rgb(255, 255, 255);&quot;&gt;&lt;span style=&quot;color: rgb(51, 51, 51); font-family: &amp;quot;Helvetica Neue&amp;quot;, Helvetica, Arial, sans-serif; background-color: rgb(255, 255, 255);&quot;&gt;Kami dengan senang hati menyambut Anda untuk mendaftarkan diri sebagai calon siswa baru di SMKN1 Rawajitu Selatan. Silakan ikuti langkah-langkah di bawah ini untuk memulai proses pendaftaran:&lt;/span&gt;&lt;br style=&quot;box-sizing: border-box; color: rgb(51, 51, 51); font-family: &amp;quot;Helvetica Neue&amp;quot;, Helvetica, Arial, sans-serif; background-color: rgb(255, 255, 255);&quot;&gt;&lt;span style=&quot;box-sizing: border-box; font-weight: 700; color: rgb(51, 51, 51); font-family: &amp;quot;Helvetica Neue&amp;quot;, Helvetica, Arial, sans-serif; background-color: rgb(255, 255, 255);&quot;&gt;Langkah 1: Pendaftaran Online&lt;/span&gt;&lt;br style=&quot;box-sizing: border-box; color: rgb(51, 51, 51); font-family: &amp;quot;Helvetica Neue&amp;quot;, Helvetica, Arial, sans-serif; background-color: rgb(255, 255, 255);&quot;&gt;&lt;span style=&quot;color: rgb(51, 51, 51); font-family: &amp;quot;Helvetica Neue&amp;quot;, Helvetica, Arial, sans-serif; background-color: rgb(255, 255, 255);&quot;&gt;1. Kunjungi situs web resmi sekolah kami di www.siakadsmkn1rawajitu.my.id.&lt;/span&gt;&lt;br style=&quot;box-sizing: border-box; color: rgb(51, 51, 51); font-family: &amp;quot;Helvetica Neue&amp;quot;, Helvetica, Arial, sans-serif; background-color: rgb(255, 255, 255);&quot;&gt;&lt;span style=&quot;color: rgb(51, 51, 51); font-family: &amp;quot;Helvetica Neue&amp;quot;, Helvetica, Arial, sans-serif; background-color: rgb(255, 255, 255);&quot;&gt;2. Klik pada tombol &quot;DAFTAR&quot; untuk mengakses halaman PPDB online.&lt;/span&gt;&lt;br style=&quot;box-sizing: border-box; color: rgb(51, 51, 51); font-family: &amp;quot;Helvetica Neue&amp;quot;, Helvetica, Arial, sans-serif; background-color: rgb(255, 255, 255);&quot;&gt;&lt;span style=&quot;color: rgb(51, 51, 51); font-family: &amp;quot;Helvetica Neue&amp;quot;, Helvetica, Arial, sans-serif; background-color: rgb(255, 255, 255);&quot;&gt;3. Silahkan baca &quot;KETENTUAN YANG ADA&quot;&lt;/span&gt;&lt;br style=&quot;box-sizing: border-box; color: rgb(51, 51, 51); font-family: &amp;quot;Helvetica Neue&amp;quot;, Helvetica, Arial, sans-serif; background-color: rgb(255, 255, 255);&quot;&gt;&lt;span style=&quot;color: rgb(51, 51, 51); font-family: &amp;quot;Helvetica Neue&amp;quot;, Helvetica, Arial, sans-serif; background-color: rgb(255, 255, 255);&quot;&gt;4. Silahkan membaca JADWAL TES MASUK yang sudah di sediakan DI MENU JADWAL PELAKSANAAN.&lt;/span&gt;&lt;br style=&quot;box-sizing: border-box; color: rgb(51, 51, 51); font-family: &amp;quot;Helvetica Neue&amp;quot;, Helvetica, Arial, sans-serif; background-color: rgb(255, 255, 255);&quot;&gt;&lt;span style=&quot;color: rgb(51, 51, 51); font-family: &amp;quot;Helvetica Neue&amp;quot;, Helvetica, Arial, sans-serif; background-color: rgb(255, 255, 255);&quot;&gt;5. Silahkan klik menu &quot;DAFTAR SISWA BARU&quot; kemudian isi data diri anda.&lt;/span&gt;&lt;br style=&quot;box-sizing: border-box; color: rgb(51, 51, 51); font-family: &amp;quot;Helvetica Neue&amp;quot;, Helvetica, Arial, sans-serif; background-color: rgb(255, 255, 255);&quot;&gt;&lt;span style=&quot;box-sizing: border-box; font-weight: 700; color: rgb(51, 51, 51); font-family: &amp;quot;Helvetica Neue&amp;quot;, Helvetica, Arial, sans-serif; background-color: rgb(255, 255, 255);&quot;&gt;Langkah 2: Tes Masuk&lt;/span&gt;&lt;br style=&quot;box-sizing: border-box; color: rgb(51, 51, 51); font-family: &amp;quot;Helvetica Neue&amp;quot;, Helvetica, Arial, sans-serif; background-color: rgb(255, 255, 255);&quot;&gt;&lt;span style=&quot;color: rgb(51, 51, 51); font-family: &amp;quot;Helvetica Neue&amp;quot;, Helvetica, Arial, sans-serif; background-color: rgb(255, 255, 255);&quot;&gt;1. Bagi calon siswa di wajibkan mengikuti kegiatan tes masuk sesuai dengan jadwal yang telah di tentukan.&lt;/span&gt;&lt;br style=&quot;box-sizing: border-box; color: rgb(51, 51, 51); font-family: &amp;quot;Helvetica Neue&amp;quot;, Helvetica, Arial, sans-serif; background-color: rgb(255, 255, 255);&quot;&gt;&lt;span style=&quot;box-sizing: border-box; font-weight: 700; color: rgb(51, 51, 51); font-family: &amp;quot;Helvetica Neue&amp;quot;, Helvetica, Arial, sans-serif; background-color: rgb(255, 255, 255);&quot;&gt;Langkah 3: Pengumuman&lt;/span&gt;&lt;br style=&quot;box-sizing: border-box; color: rgb(51, 51, 51); font-family: &amp;quot;Helvetica Neue&amp;quot;, Helvetica, Arial, sans-serif; background-color: rgb(255, 255, 255);&quot;&gt;&lt;span style=&quot;color: rgb(51, 51, 51); font-family: &amp;quot;Helvetica Neue&amp;quot;, Helvetica, Arial, sans-serif; background-color: rgb(255, 255, 255);&quot;&gt;1. Pengumuman calon siswa yang dinyatakan LOLOS akan di sampaikan melalui papan pengumuman sekolah dan melalui whatsapp.&lt;/span&gt;&lt;br style=&quot;box-sizing: border-box; color: rgb(51, 51, 51); font-family: &amp;quot;Helvetica Neue&amp;quot;, Helvetica, Arial, sans-serif; background-color: rgb(255, 255, 255);&quot;&gt;&lt;span style=&quot;box-sizing: border-box; font-weight: 700; color: rgb(51, 51, 51); font-family: &amp;quot;Helvetica Neue&amp;quot;, Helvetica, Arial, sans-serif; background-color: rgb(255, 255, 255);&quot;&gt;Langkah 4: Pembayaran dan Kode Akses&lt;/span&gt;&lt;br style=&quot;box-sizing: border-box; color: rgb(51, 51, 51); font-family: &amp;quot;Helvetica Neue&amp;quot;, Helvetica, Arial, sans-serif; background-color: rgb(255, 255, 255);&quot;&gt;&lt;span style=&quot;color: rgb(51, 51, 51); font-family: &amp;quot;Helvetica Neue&amp;quot;, Helvetica, Arial, sans-serif; background-color: rgb(255, 255, 255);&quot;&gt;1. Bagi siswa yang di nyatakan lolos wajib melakukan pembayaran ke rekening sekolah, untuk melanjutkan langkah berikutnya&lt;/span&gt;&lt;br style=&quot;box-sizing: border-box; color: rgb(51, 51, 51); font-family: &amp;quot;Helvetica Neue&amp;quot;, Helvetica, Arial, sans-serif; background-color: rgb(255, 255, 255);&quot;&gt;&lt;span style=&quot;color: rgb(51, 51, 51); font-family: &amp;quot;Helvetica Neue&amp;quot;, Helvetica, Arial, sans-serif; background-color: rgb(255, 255, 255);&quot;&gt;No Rekening : xxxxxxxxxxxxxx&lt;/span&gt;&lt;br style=&quot;box-sizing: border-box; color: rgb(51, 51, 51); font-family: &amp;quot;Helvetica Neue&amp;quot;, Helvetica, Arial, sans-serif; background-color: rgb(255, 255, 255);&quot;&gt;&lt;span style=&quot;color: rgb(51, 51, 51); font-family: &amp;quot;Helvetica Neue&amp;quot;, Helvetica, Arial, sans-serif; background-color: rgb(255, 255, 255);&quot;&gt;Atas Nama : BPN 010 SMKN1 rawajitu selatan&lt;/span&gt;&lt;br style=&quot;box-sizing: border-box; color: rgb(51, 51, 51); font-family: &amp;quot;Helvetica Neue&amp;quot;, Helvetica, Arial, sans-serif; background-color: rgb(255, 255, 255);&quot;&gt;&lt;span style=&quot;color: rgb(51, 51, 51); font-family: &amp;quot;Helvetica Neue&amp;quot;, Helvetica, Arial, sans-serif; background-color: rgb(255, 255, 255);&quot;&gt;BRI UNIT rawajitu selatan&lt;/span&gt;&lt;br style=&quot;box-sizing: border-box; color: rgb(51, 51, 51); font-family: &amp;quot;Helvetica Neue&amp;quot;, Helvetica, Arial, sans-serif; background-color: rgb(255, 255, 255);&quot;&gt;&lt;span style=&quot;color: rgb(51, 51, 51); font-family: &amp;quot;Helvetica Neue&amp;quot;, Helvetica, Arial, sans-serif; background-color: rgb(255, 255, 255);&quot;&gt;Note : Bagi Bapak/Ibuk yang sudah melakukan pembayaran dan konfirmasi harap segera megirim pesan ke nomor 08238xxxxx&lt;/span&gt;&lt;br style=&quot;box-sizing: border-box; color: rgb(51, 51, 51); font-family: &amp;quot;Helvetica Neue&amp;quot;, Helvetica, Arial, sans-serif; background-color: rgb(255, 255, 255);&quot;&gt;&lt;span style=&quot;color: rgb(51, 51, 51); font-family: &amp;quot;Helvetica Neue&amp;quot;, Helvetica, Arial, sans-serif; background-color: rgb(255, 255, 255);&quot;&gt;Untuk Metode Tansfer.&lt;/span&gt;&lt;br style=&quot;box-sizing: border-box; color: rgb(51, 51, 51); font-family: &amp;quot;Helvetica Neue&amp;quot;, Helvetica, Arial, sans-serif; background-color: rgb(255, 255, 255);&quot;&gt;&lt;span style=&quot;color: rgb(51, 51, 51); font-family: &amp;quot;Helvetica Neue&amp;quot;, Helvetica, Arial, sans-serif; background-color: rgb(255, 255, 255);&quot;&gt;dengan format pesan : [jenis metode pembaran] [no_rekening] [nama anak/nama pesera] [nomor_konfirmasi]&lt;/span&gt;&lt;br style=&quot;box-sizing: border-box; color: rgb(51, 51, 51); font-family: &amp;quot;Helvetica Neue&amp;quot;, Helvetica, Arial, sans-serif; background-color: rgb(255, 255, 255);&quot;&gt;&lt;span style=&quot;color: rgb(51, 51, 51); font-family: &amp;quot;Helvetica Neue&amp;quot;, Helvetica, Arial, sans-serif; background-color: rgb(255, 255, 255);&quot;&gt;Contoh Pesan Metode Transfer : Transfer 111112318923 Abdi gunawan QC401&lt;/span&gt;&lt;br style=&quot;box-sizing: border-box; color: rgb(51, 51, 51); font-family: &amp;quot;Helvetica Neue&amp;quot;, Helvetica, Arial, sans-serif; background-color: rgb(255, 255, 255);&quot;&gt;&lt;span style=&quot;color: rgb(51, 51, 51); font-family: &amp;quot;Helvetica Neue&amp;quot;, Helvetica, Arial, sans-serif; background-color: rgb(255, 255, 255);&quot;&gt;Untuk Metode Setoran.&lt;/span&gt;&lt;br style=&quot;box-sizing: border-box; color: rgb(51, 51, 51); font-family: &amp;quot;Helvetica Neue&amp;quot;, Helvetica, Arial, sans-serif; background-color: rgb(255, 255, 255);&quot;&gt;&lt;span style=&quot;color: rgb(51, 51, 51); font-family: &amp;quot;Helvetica Neue&amp;quot;, Helvetica, Arial, sans-serif; background-color: rgb(255, 255, 255);&quot;&gt;Invite/Add ID What&#39;sApp dengan nomor 0812xxxxx&lt;/span&gt;&lt;br style=&quot;box-sizing: border-box; color: rgb(51, 51, 51); font-family: &amp;quot;Helvetica Neue&amp;quot;, Helvetica, Arial, sans-serif; background-color: rgb(255, 255, 255);&quot;&gt;&lt;span style=&quot;color: rgb(51, 51, 51); font-family: &amp;quot;Helvetica Neue&amp;quot;, Helvetica, Arial, sans-serif; background-color: rgb(255, 255, 255);&quot;&gt;dengan format pesan : Kirim foto bukti slip setoran dan nama anak/peserta serta nomor konfirmasi&lt;/span&gt;&lt;br style=&quot;box-sizing: border-box; color: rgb(51, 51, 51); font-family: &amp;quot;Helvetica Neue&amp;quot;, Helvetica, Arial, sans-serif; background-color: rgb(255, 255, 255);&quot;&gt;&lt;span style=&quot;color: rgb(51, 51, 51); font-family: &amp;quot;Helvetica Neue&amp;quot;, Helvetica, Arial, sans-serif; background-color: rgb(255, 255, 255);&quot;&gt;Contoh Format Pesan Whatsapp : [foto bukti slip setor] Abdi gunawan QC401&lt;/span&gt;&lt;br style=&quot;box-sizing: border-box; color: rgb(51, 51, 51); font-family: &amp;quot;Helvetica Neue&amp;quot;, Helvetica, Arial, sans-serif; background-color: rgb(255, 255, 255);&quot;&gt;&lt;span style=&quot;color: rgb(51, 51, 51); font-family: &amp;quot;Helvetica Neue&amp;quot;, Helvetica, Arial, sans-serif; background-color: rgb(255, 255, 255);&quot;&gt;2. Admin akan mengirimkan kode akses sekali pakai.&lt;/span&gt;&lt;br style=&quot;box-sizing: border-box; color: rgb(51, 51, 51); font-family: &amp;quot;Helvetica Neue&amp;quot;, Helvetica, Arial, sans-serif; background-color: rgb(255, 255, 255);&quot;&gt;&lt;span style=&quot;color: rgb(51, 51, 51); font-family: &amp;quot;Helvetica Neue&amp;quot;, Helvetica, Arial, sans-serif; background-color: rgb(255, 255, 255);&quot;&gt;3. Masukan kode akses yang telah di terima ke dalam menu &quot;DAFTAR ULANG&quot; kemudian isi data diri sesuai dengan form tersebut.&lt;/span&gt;&lt;br style=&quot;box-sizing: border-box; color: rgb(51, 51, 51); font-family: &amp;quot;Helvetica Neue&amp;quot;, Helvetica, Arial, sans-serif; background-color: rgb(255, 255, 255);&quot;&gt;&lt;span style=&quot;color: rgb(51, 51, 51); font-family: &amp;quot;Helvetica Neue&amp;quot;, Helvetica, Arial, sans-serif; background-color: rgb(255, 255, 255);&quot;&gt;Terima kasih atas minat Anda untuk bergabung dengan kami. Jika Anda memiliki pertanyaan lebih lanjut, jangan ragu untuk menghubungi kami melalui kontak yang tersedia di situs web kami.&lt;/span&gt;&lt;br style=&quot;box-sizing: border-box; color: rgb(51, 51, 51); font-family: &amp;quot;Helvetica Neue&amp;quot;, Helvetica, Arial, sans-serif; background-color: rgb(255, 255, 255);&quot;&gt;&lt;span style=&quot;color: rgb(51, 51, 51); font-family: &amp;quot;Helvetica Neue&amp;quot;, Helvetica, Arial, sans-serif; background-color: rgb(255, 255, 255);&quot;&gt;Salam hangat,&lt;/span&gt;&lt;br style=&quot;box-sizing: border-box; color: rgb(51, 51, 51); font-family: &amp;quot;Helvetica Neue&amp;quot;, Helvetica, Arial, sans-serif; background-color: rgb(255, 255, 255);&quot;&gt;&lt;span style=&quot;color: rgb(51, 51, 51); font-family: &amp;quot;Helvetica Neue&amp;quot;, Helvetica, Arial, sans-serif; background-color: rgb(255, 255, 255);&quot;&gt;SMKN1 Rawajitu Selatan&lt;/span&gt;&lt;/font&gt;" style="text;html=1;align=left;verticalAlign=middle;resizable=0;points=[];autosize=1;strokeColor=none;fillColor=none;" parent="1" vertex="1">
          <mxGeometry x="220" y="95" width="560" height="450" as="geometry" />
        </mxCell>
        <mxCell id="kbFIIHzen_AEIY-MDHzp-1" value="&lt;font style=&quot;font-size: 8px;&quot;&gt;Beranda Aturan &amp;amp; Prosedur Jadwal Pelaksanaan Alur Pendaftaran Daftar Siswa Baru Daftar Ulang&lt;/font&gt;" style="text;html=1;align=center;verticalAlign=middle;resizable=0;points=[];autosize=1;strokeColor=none;fillColor=none;" parent="1" vertex="1">
          <mxGeometry x="280" y="72" width="370" height="30" as="geometry" />
        </mxCell>
      </root>
    </mxGraphModel>
  </diagram>
  <diagram id="b1k9eyR1ZJMDLsSHfXjV" name="Kode Pendaftaran">
    <mxGraphModel dx="1034" dy="511" grid="1" gridSize="10" guides="1" tooltips="1" connect="1" arrows="1" fold="1" page="1" pageScale="1" pageWidth="850" pageHeight="1100" math="0" shadow="0">
      <root>
        <mxCell id="0" />
        <mxCell id="1" parent="0" />
        <mxCell id="yCatoFW3RtRbHA4gLQMw-1" value="" style="rounded=0;whiteSpace=wrap;html=1;movable=1;resizable=1;rotatable=1;deletable=1;editable=1;locked=0;connectable=1;" parent="1" vertex="1">
          <mxGeometry x="230" y="40" width="480" height="330" as="geometry" />
        </mxCell>
        <mxCell id="yCatoFW3RtRbHA4gLQMw-2" value="Gambar" style="rounded=0;whiteSpace=wrap;html=1;movable=1;resizable=1;rotatable=1;deletable=1;editable=1;locked=0;connectable=1;" parent="1" vertex="1">
          <mxGeometry x="270" y="50" width="400" height="25" as="geometry" />
        </mxCell>
        <mxCell id="yCatoFW3RtRbHA4gLQMw-3" value="" style="rounded=0;whiteSpace=wrap;html=1;align=left;shadow=0;" parent="1" vertex="1">
          <mxGeometry x="310" y="97" width="300" height="78" as="geometry" />
        </mxCell>
        <mxCell id="hJn9j48tWogj9OnNV38f-1" value="&lt;span style=&quot;font-size: 8px;&quot;&gt;Proses kode&lt;/span&gt;" style="rounded=1;whiteSpace=wrap;html=1;fillColor=#CCCCCC;" parent="1" vertex="1">
          <mxGeometry x="552" y="146" width="50" height="20" as="geometry" />
        </mxCell>
        <mxCell id="AFHdeKX3fCB563w4u2P9-1" value="" style="rounded=0;whiteSpace=wrap;html=1;align=left;shadow=0;" parent="1" vertex="1">
          <mxGeometry x="393" y="131" width="110" height="10" as="geometry" />
        </mxCell>
        <mxCell id="AFHdeKX3fCB563w4u2P9-2" value="&lt;font style=&quot;font-size: 8px;&quot;&gt;Validasi Pendaftaran&lt;/font&gt;" style="text;html=1;align=center;verticalAlign=middle;resizable=0;points=[];autosize=1;strokeColor=none;fillColor=none;" parent="1" vertex="1">
          <mxGeometry x="303" y="93" width="100" height="30" as="geometry" />
        </mxCell>
        <mxCell id="AFHdeKX3fCB563w4u2P9-3" value="&lt;span style=&quot;font-size: 8px;&quot;&gt;&lt;b&gt;Kode Aktivasi&lt;/b&gt;&lt;/span&gt;" style="text;html=1;align=center;verticalAlign=middle;resizable=0;points=[];autosize=1;strokeColor=none;fillColor=none;" parent="1" vertex="1">
          <mxGeometry x="318" y="119" width="80" height="30" as="geometry" />
        </mxCell>
        <mxCell id="7ezoEkoCe-G8iDSzVOub-1" value="&lt;font style=&quot;font-size: 8px;&quot;&gt;Beranda Aturan &amp;amp; Prosedur Jadwal Pelaksanaan Alur Pendaftaran Daftar Siswa Baru Daftar Ulang&lt;/font&gt;" style="text;html=1;align=center;verticalAlign=middle;resizable=0;points=[];autosize=1;strokeColor=none;fillColor=none;" parent="1" vertex="1">
          <mxGeometry x="270" y="67" width="370" height="30" as="geometry" />
        </mxCell>
      </root>
    </mxGraphModel>
  </diagram>
  <diagram id="dQdEuJbH8IxeieF_s2FN" name="formulir pendaftaran">
    <mxGraphModel dx="1034" dy="511" grid="1" gridSize="10" guides="1" tooltips="1" connect="1" arrows="1" fold="1" page="1" pageScale="1" pageWidth="850" pageHeight="1100" math="0" shadow="0">
      <root>
        <mxCell id="0" />
        <mxCell id="1" parent="0" />
        <mxCell id="gED7lfWncQqi3r1H0jTv-1" value="" style="rounded=0;whiteSpace=wrap;html=1;movable=1;resizable=1;rotatable=1;deletable=1;editable=1;locked=0;connectable=1;" parent="1" vertex="1">
          <mxGeometry x="200" y="19" width="440" height="320" as="geometry" />
        </mxCell>
        <mxCell id="gED7lfWncQqi3r1H0jTv-2" value="Gambar" style="rounded=0;whiteSpace=wrap;html=1;movable=1;resizable=1;rotatable=1;deletable=1;editable=1;locked=0;connectable=1;" parent="1" vertex="1">
          <mxGeometry x="240" y="28" width="360" height="20" as="geometry" />
        </mxCell>
        <mxCell id="gED7lfWncQqi3r1H0jTv-4" value="&lt;font style=&quot;font-size: 6px;&quot;&gt;PSB SD - Pendaftaran Siswa Baru&lt;/font&gt;" style="rounded=0;whiteSpace=wrap;html=1;align=left;shadow=0;" parent="1" vertex="1">
          <mxGeometry x="240" y="66" width="360" height="10" as="geometry" />
        </mxCell>
        <mxCell id="gED7lfWncQqi3r1H0jTv-6" value="&lt;font style=&quot;font-size: 8px;&quot;&gt;Batal&lt;/font&gt;" style="rounded=1;whiteSpace=wrap;html=1;fillColor=#CCCCCC;" parent="1" vertex="1">
          <mxGeometry x="298" y="307" width="50" height="20" as="geometry" />
        </mxCell>
        <mxCell id="gED7lfWncQqi3r1H0jTv-7" value="&lt;span style=&quot;font-size: 8px;&quot;&gt;Kirimkan&lt;/span&gt;" style="rounded=1;whiteSpace=wrap;html=1;fillColor=#CCCCCC;" parent="1" vertex="1">
          <mxGeometry x="240" y="307" width="50" height="20" as="geometry" />
        </mxCell>
        <mxCell id="gED7lfWncQqi3r1H0jTv-10" value="&lt;div style=&quot;&quot;&gt;&lt;span style=&quot;background-color: initial;&quot;&gt;&lt;font style=&quot;font-size: 8px;&quot;&gt;Nama Lengkap&lt;/font&gt;&lt;/span&gt;&lt;/div&gt;&lt;font style=&quot;font-size: 8px;&quot;&gt;&lt;div style=&quot;&quot;&gt;&lt;span style=&quot;background-color: initial;&quot;&gt;NISN&lt;/span&gt;&lt;/div&gt;&lt;div style=&quot;&quot;&gt;&lt;span style=&quot;background-color: initial;&quot;&gt;Apakah anda siswa pindahan?&lt;/span&gt;&lt;/div&gt;&lt;div style=&quot;&quot;&gt;&lt;span style=&quot;background-color: initial;&quot;&gt;Jurusan Yang Anda Pilih&lt;/span&gt;&lt;/div&gt;&lt;div style=&quot;&quot;&gt;&lt;span style=&quot;background-color: initial;&quot;&gt;Jenis Kelamin&lt;/span&gt;&lt;/div&gt;&lt;div style=&quot;&quot;&gt;&lt;span style=&quot;background-color: initial;&quot;&gt;Tempat Lahir&lt;/span&gt;&lt;/div&gt;&lt;div style=&quot;&quot;&gt;&lt;span style=&quot;background-color: initial;&quot;&gt;Tanggal Lahir&lt;/span&gt;&lt;/div&gt;&lt;div style=&quot;&quot;&gt;&lt;span style=&quot;background-color: initial;&quot;&gt;Agama&amp;nbsp;&lt;/span&gt;&lt;/div&gt;&lt;div style=&quot;&quot;&gt;&lt;span style=&quot;background-color: initial;&quot;&gt;Alamat Lengkap&lt;/span&gt;&lt;/div&gt;&lt;div style=&quot;&quot;&gt;&lt;span style=&quot;background-color: initial;&quot;&gt;No. Telpon&lt;/span&gt;&lt;/div&gt;&lt;div style=&quot;&quot;&gt;&lt;span style=&quot;background-color: initial;&quot;&gt;Nama Sekolah Asal&lt;/span&gt;&lt;/div&gt;&lt;div style=&quot;&quot;&gt;&lt;span style=&quot;background-color: initial;&quot;&gt;Alamat Sekolah Asal&lt;/span&gt;&lt;/div&gt;&lt;/font&gt;" style="text;html=1;align=right;verticalAlign=middle;resizable=0;points=[];autosize=1;strokeColor=none;fillColor=none;" parent="1" vertex="1">
          <mxGeometry x="200" y="78" width="130" height="130" as="geometry" />
        </mxCell>
        <mxCell id="gED7lfWncQqi3r1H0jTv-11" value="" style="rounded=0;whiteSpace=wrap;html=1;align=left;shadow=0;" parent="1" vertex="1">
          <mxGeometry x="330" y="98" width="220" height="10" as="geometry" />
        </mxCell>
        <mxCell id="gED7lfWncQqi3r1H0jTv-12" value="" style="rounded=0;whiteSpace=wrap;html=1;align=left;shadow=0;" parent="1" vertex="1">
          <mxGeometry x="330" y="110" width="220" height="10" as="geometry" />
        </mxCell>
        <mxCell id="gED7lfWncQqi3r1H0jTv-13" value="" style="rounded=0;whiteSpace=wrap;html=1;align=left;shadow=0;" parent="1" vertex="1">
          <mxGeometry x="330" y="122" width="220" height="10" as="geometry" />
        </mxCell>
        <mxCell id="gED7lfWncQqi3r1H0jTv-14" value="" style="rounded=0;whiteSpace=wrap;html=1;align=left;shadow=0;" parent="1" vertex="1">
          <mxGeometry x="330" y="134" width="220" height="10" as="geometry" />
        </mxCell>
        <mxCell id="gED7lfWncQqi3r1H0jTv-15" value="" style="rounded=0;whiteSpace=wrap;html=1;align=left;shadow=0;" parent="1" vertex="1">
          <mxGeometry x="330" y="146" width="220" height="10" as="geometry" />
        </mxCell>
        <mxCell id="gED7lfWncQqi3r1H0jTv-16" value="" style="rounded=0;whiteSpace=wrap;html=1;align=left;shadow=0;" parent="1" vertex="1">
          <mxGeometry x="330" y="158" width="220" height="10" as="geometry" />
        </mxCell>
        <mxCell id="gED7lfWncQqi3r1H0jTv-17" value="" style="rounded=0;whiteSpace=wrap;html=1;align=left;shadow=0;" parent="1" vertex="1">
          <mxGeometry x="330" y="170" width="220" height="10" as="geometry" />
        </mxCell>
        <mxCell id="gED7lfWncQqi3r1H0jTv-18" value="" style="rounded=0;whiteSpace=wrap;html=1;align=left;shadow=0;" parent="1" vertex="1">
          <mxGeometry x="330" y="182" width="220" height="10" as="geometry" />
        </mxCell>
        <mxCell id="gED7lfWncQqi3r1H0jTv-20" value="&lt;font style=&quot;font-size: 6px;&quot;&gt;&lt;span style=&quot;white-space: pre;&quot;&gt;&#x9;&lt;/span&gt;&lt;span style=&quot;white-space: pre;&quot;&gt;&#x9;&lt;/span&gt;&lt;span style=&quot;white-space: pre;&quot;&gt;&#x9;&lt;/span&gt;&lt;span style=&quot;white-space: pre;&quot;&gt;&#x9;&lt;/span&gt;&lt;span style=&quot;white-space: pre;&quot;&gt;&#x9;&lt;/span&gt;&lt;span style=&quot;white-space: pre;&quot;&gt;&#x9;&lt;/span&gt;&lt;span style=&quot;white-space: pre;&quot;&gt;&#x9;&lt;/span&gt;&lt;span style=&quot;white-space: pre;&quot;&gt;&#x9;&lt;/span&gt;&lt;span style=&quot;white-space: pre;&quot;&gt;&#x9;&lt;/span&gt;&lt;span style=&quot;white-space: pre;&quot;&gt;&#x9;&lt;/span&gt;&lt;span style=&quot;white-space: pre;&quot;&gt;&#x9;&lt;/span&gt;Data Ayah&lt;span style=&quot;white-space: pre;&quot;&gt;&#x9;&lt;/span&gt;&lt;span style=&quot;white-space: pre;&quot;&gt;&#x9;&lt;/span&gt;&lt;span style=&quot;white-space: pre;&quot;&gt;&#x9;&lt;/span&gt;&lt;span style=&quot;white-space: pre;&quot;&gt;&#x9;&lt;/span&gt;&lt;span style=&quot;white-space: pre;&quot;&gt;&#x9;&lt;span style=&quot;white-space: pre;&quot;&gt;&#x9;&lt;/span&gt;&lt;span style=&quot;white-space: pre;&quot;&gt;&#x9;&lt;/span&gt;&lt;/span&gt;&lt;span style=&quot;white-space: pre;&quot;&gt;&#x9;&lt;/span&gt;Data Ibu&lt;/font&gt;" style="rounded=0;whiteSpace=wrap;html=1;align=left;shadow=0;" parent="1" vertex="1">
          <mxGeometry x="240" y="210" width="360" height="10" as="geometry" />
        </mxCell>
        <mxCell id="gED7lfWncQqi3r1H0jTv-21" value="" style="rounded=0;whiteSpace=wrap;html=1;align=left;shadow=0;" parent="1" vertex="1">
          <mxGeometry x="330" y="194" width="220" height="10" as="geometry" />
        </mxCell>
        <mxCell id="gED7lfWncQqi3r1H0jTv-22" value="&lt;div style=&quot;&quot;&gt;&lt;span style=&quot;background-color: initial;&quot;&gt;&lt;font style=&quot;font-size: 8px;&quot;&gt;Nama Lengkap&lt;/font&gt;&lt;/span&gt;&lt;/div&gt;&lt;font style=&quot;font-size: 8px;&quot;&gt;&lt;div style=&quot;&quot;&gt;&lt;span style=&quot;background-color: initial;&quot;&gt;Tempat Lahir&lt;/span&gt;&lt;/div&gt;&lt;div style=&quot;&quot;&gt;&lt;span style=&quot;background-color: initial;&quot;&gt;Tanggal Lahir&lt;/span&gt;&lt;/div&gt;&lt;div style=&quot;&quot;&gt;&lt;span style=&quot;background-color: initial;&quot;&gt;Agama&lt;/span&gt;&lt;/div&gt;&lt;div style=&quot;&quot;&gt;&lt;span style=&quot;background-color: initial;&quot;&gt;Pendidikan Terakhir&lt;/span&gt;&lt;/div&gt;&lt;div style=&quot;&quot;&gt;&lt;span style=&quot;background-color: initial;&quot;&gt;Pekerjaan&amp;nbsp;&lt;/span&gt;&lt;/div&gt;&lt;div style=&quot;&quot;&gt;&lt;span style=&quot;background-color: initial;&quot;&gt;Alamat Rumah&lt;/span&gt;&lt;/div&gt;&lt;div style=&quot;&quot;&gt;&lt;span style=&quot;background-color: initial;&quot;&gt;No. Telpon Rumah&lt;/span&gt;&lt;/div&gt;&lt;/font&gt;" style="text;html=1;align=right;verticalAlign=middle;resizable=0;points=[];autosize=1;strokeColor=none;fillColor=none;" parent="1" vertex="1">
          <mxGeometry x="240" y="207" width="90" height="100" as="geometry" />
        </mxCell>
        <mxCell id="gED7lfWncQqi3r1H0jTv-23" value="" style="rounded=0;whiteSpace=wrap;html=1;align=left;shadow=0;" parent="1" vertex="1">
          <mxGeometry x="330" y="223" width="140" height="10" as="geometry" />
        </mxCell>
        <mxCell id="gED7lfWncQqi3r1H0jTv-24" value="" style="rounded=0;whiteSpace=wrap;html=1;align=left;shadow=0;" parent="1" vertex="1">
          <mxGeometry x="331" y="235" width="140" height="10" as="geometry" />
        </mxCell>
        <mxCell id="gED7lfWncQqi3r1H0jTv-26" value="" style="rounded=0;whiteSpace=wrap;html=1;align=left;shadow=0;" parent="1" vertex="1">
          <mxGeometry x="331" y="247" width="140" height="10" as="geometry" />
        </mxCell>
        <mxCell id="gED7lfWncQqi3r1H0jTv-27" value="" style="rounded=0;whiteSpace=wrap;html=1;align=left;shadow=0;" parent="1" vertex="1">
          <mxGeometry x="331" y="259" width="140" height="11" as="geometry" />
        </mxCell>
        <mxCell id="gED7lfWncQqi3r1H0jTv-28" value="" style="rounded=0;whiteSpace=wrap;html=1;align=left;shadow=0;" parent="1" vertex="1">
          <mxGeometry x="332" y="272" width="140" height="11" as="geometry" />
        </mxCell>
        <mxCell id="gED7lfWncQqi3r1H0jTv-29" value="" style="rounded=0;whiteSpace=wrap;html=1;align=left;shadow=0;" parent="1" vertex="1">
          <mxGeometry x="332" y="285" width="140" height="11" as="geometry" />
        </mxCell>
        <mxCell id="gED7lfWncQqi3r1H0jTv-31" value="" style="rounded=0;whiteSpace=wrap;html=1;align=left;shadow=0;" parent="1" vertex="1">
          <mxGeometry x="476" y="223" width="124" height="10" as="geometry" />
        </mxCell>
        <mxCell id="gED7lfWncQqi3r1H0jTv-32" value="" style="rounded=0;whiteSpace=wrap;html=1;align=left;shadow=0;" parent="1" vertex="1">
          <mxGeometry x="477" y="235" width="124" height="10" as="geometry" />
        </mxCell>
        <mxCell id="gED7lfWncQqi3r1H0jTv-33" value="" style="rounded=0;whiteSpace=wrap;html=1;align=left;shadow=0;" parent="1" vertex="1">
          <mxGeometry x="478" y="247" width="124" height="10" as="geometry" />
        </mxCell>
        <mxCell id="gED7lfWncQqi3r1H0jTv-34" value="" style="rounded=0;whiteSpace=wrap;html=1;align=left;shadow=0;" parent="1" vertex="1">
          <mxGeometry x="479" y="259" width="124" height="10" as="geometry" />
        </mxCell>
        <mxCell id="gED7lfWncQqi3r1H0jTv-35" value="" style="rounded=0;whiteSpace=wrap;html=1;align=left;shadow=0;" parent="1" vertex="1">
          <mxGeometry x="479" y="271" width="124" height="10" as="geometry" />
        </mxCell>
        <mxCell id="gED7lfWncQqi3r1H0jTv-36" value="" style="rounded=0;whiteSpace=wrap;html=1;align=left;shadow=0;" parent="1" vertex="1">
          <mxGeometry x="480" y="283" width="124" height="10" as="geometry" />
        </mxCell>
        <mxCell id="ouwQikbH3jp6oPcu3-B0-1" value="" style="rounded=0;whiteSpace=wrap;html=1;align=left;shadow=0;" parent="1" vertex="1">
          <mxGeometry x="330" y="85" width="220" height="10" as="geometry" />
        </mxCell>
        <mxCell id="FOhg3b3ppScKv9EInyUR-1" value="&lt;font style=&quot;font-size: 8px;&quot;&gt;Beranda Aturan &amp;amp; Prosedur Jadwal Pelaksanaan Alur Pendaftaran Daftar Siswa Baru Daftar Ulang&lt;/font&gt;" style="text;html=1;align=center;verticalAlign=middle;resizable=0;points=[];autosize=1;strokeColor=none;fillColor=none;" parent="1" vertex="1">
          <mxGeometry x="240" y="41" width="370" height="30" as="geometry" />
        </mxCell>
      </root>
    </mxGraphModel>
  </diagram>
  <diagram id="yqDEzT-vianIrA8MHS8a" name="Page-8">
    <mxGraphModel dx="604" dy="502" grid="1" gridSize="10" guides="1" tooltips="1" connect="1" arrows="1" fold="1" page="1" pageScale="1" pageWidth="850" pageHeight="1100" math="0" shadow="0">
      <root>
        <mxCell id="0" />
        <mxCell id="1" parent="0" />
      </root>
    </mxGraphModel>
  </diagram>
  <diagram id="xhS1UDkGlbPLePr2ABnd" name="dasboard admin">
    <mxGraphModel dx="604" dy="502" grid="1" gridSize="10" guides="1" tooltips="1" connect="1" arrows="1" fold="1" page="1" pageScale="1" pageWidth="850" pageHeight="1100" math="0" shadow="0">
      <root>
        <mxCell id="0" />
        <mxCell id="1" parent="0" />
        <mxCell id="iUgAuTgEXqKUAmdhrl_Q-1" value="" style="rounded=0;whiteSpace=wrap;html=1;movable=1;resizable=1;rotatable=1;deletable=1;editable=1;locked=0;connectable=1;" vertex="1" parent="1">
          <mxGeometry x="200" y="40" width="440" height="240" as="geometry" />
        </mxCell>
        <mxCell id="iUgAuTgEXqKUAmdhrl_Q-2" value="&lt;font style=&quot;font-size: 6px;&quot;&gt;logo&lt;/font&gt;" style="whiteSpace=wrap;html=1;aspect=fixed;" vertex="1" parent="1">
          <mxGeometry x="205" y="60" width="20" height="20" as="geometry" />
        </mxCell>
        <mxCell id="iUgAuTgEXqKUAmdhrl_Q-3" value="" style="endArrow=none;html=1;rounded=0;" edge="1" parent="1">
          <mxGeometry width="50" height="50" relative="1" as="geometry">
            <mxPoint x="280" y="280" as="sourcePoint" />
            <mxPoint x="280" y="40" as="targetPoint" />
          </mxGeometry>
        </mxCell>
        <mxCell id="iUgAuTgEXqKUAmdhrl_Q-4" value="" style="line;strokeWidth=2;html=1;" vertex="1" parent="1">
          <mxGeometry x="286" y="42" width="8" height="5" as="geometry" />
        </mxCell>
        <mxCell id="iUgAuTgEXqKUAmdhrl_Q-5" value="" style="line;strokeWidth=2;html=1;" vertex="1" parent="1">
          <mxGeometry x="286" y="48" width="8" height="5" as="geometry" />
        </mxCell>
        <mxCell id="iUgAuTgEXqKUAmdhrl_Q-6" value="" style="line;strokeWidth=2;html=1;" vertex="1" parent="1">
          <mxGeometry x="286" y="45" width="8" height="5" as="geometry" />
        </mxCell>
        <mxCell id="iUgAuTgEXqKUAmdhrl_Q-7" value="&lt;font style=&quot;font-size: 6px;&quot;&gt;&lt;b&gt;MENU ADMINISTRATOR&lt;/b&gt;&lt;/font&gt;" style="text;html=1;strokeColor=none;fillColor=none;align=center;verticalAlign=middle;whiteSpace=wrap;rounded=0;" vertex="1" parent="1">
          <mxGeometry x="203" y="85" width="74" height="10" as="geometry" />
        </mxCell>
        <mxCell id="iUgAuTgEXqKUAmdhrl_Q-8" value="&lt;font style=&quot;font-size: 6px;&quot;&gt;Dashboard&lt;br&gt;Data Master&lt;br&gt;Data Pengguna&lt;br&gt;Data Akademik&lt;br&gt;Data Materi dan Tugas&lt;br&gt;Quiz/Ujian Online&lt;br&gt;Forum Diskusi&lt;br&gt;&amp;nbsp;Buku KBM&lt;br&gt;Data Absensi&lt;br&gt;NILAI SISWA&lt;br&gt;E-Raport&lt;br&gt;PSB&lt;br&gt;&lt;/font&gt;" style="text;html=1;strokeColor=none;fillColor=none;align=left;verticalAlign=middle;whiteSpace=wrap;rounded=0;" vertex="1" parent="1">
          <mxGeometry x="205" y="164" width="154" height="30" as="geometry" />
        </mxCell>
        <mxCell id="iUgAuTgEXqKUAmdhrl_Q-9" value="&lt;font style=&quot;font-size: 8px;&quot;&gt;&lt;b&gt;Dashboard&lt;/b&gt;&lt;/font&gt;" style="text;html=1;strokeColor=none;fillColor=none;align=center;verticalAlign=middle;whiteSpace=wrap;rounded=0;movable=1;resizable=1;rotatable=1;deletable=1;editable=1;locked=0;connectable=1;" vertex="1" parent="1">
          <mxGeometry x="287" y="54" width="38" height="10" as="geometry" />
        </mxCell>
        <mxCell id="iUgAuTgEXqKUAmdhrl_Q-10" value="&lt;font style=&quot;font-size: 6px;&quot;&gt;Selamat datang di&amp;nbsp;&lt;span style=&quot;box-sizing: border-box; font-weight: 700; color: rgb(51, 51, 51); font-family: &amp;quot;Source Sans Pro&amp;quot;, &amp;quot;Helvetica Neue&amp;quot;, Helvetica, Arial, sans-serif; background-color: rgb(255, 255, 255);&quot;&gt;Siakad SMKN1 Rawajitu Selatan&lt;/span&gt;&lt;span style=&quot;color: rgb(51, 51, 51); font-family: &amp;quot;Source Sans Pro&amp;quot;, &amp;quot;Helvetica Neue&amp;quot;, Helvetica, Arial, sans-serif; background-color: rgb(255, 255, 255);&quot;&gt;. Aplikasi ini dirancang untuk memudahkan dalam manajemen sekolah dan penunjang kegiatan pembelajaran secara online terima kasih.&lt;/span&gt;&lt;/font&gt;" style="text;html=1;strokeColor=none;fillColor=none;align=left;verticalAlign=middle;whiteSpace=wrap;rounded=0;movable=1;resizable=1;rotatable=1;deletable=1;editable=1;locked=0;connectable=1;" vertex="1" parent="1">
          <mxGeometry x="284" y="64" width="349" height="28" as="geometry" />
        </mxCell>
        <mxCell id="iUgAuTgEXqKUAmdhrl_Q-11" value="&lt;div style=&quot;text-align: left;&quot;&gt;&lt;span style=&quot;background-color: initial;&quot;&gt;&lt;font style=&quot;font-size: 10px;&quot;&gt;186&lt;/font&gt;&lt;/span&gt;&lt;/div&gt;&lt;font style=&quot;&quot;&gt;&lt;div style=&quot;font-size: 10px; text-align: left;&quot;&gt;&lt;span style=&quot;background-color: initial;&quot;&gt;Siswa&lt;/span&gt;&lt;/div&gt;&lt;div style=&quot;font-size: 10px; text-align: left;&quot;&gt;&lt;span style=&quot;background-color: initial;&quot;&gt;&lt;br&gt;&lt;/span&gt;&lt;/div&gt;&lt;div style=&quot;text-align: left;&quot;&gt;&lt;span style=&quot;background-color: initial;&quot;&gt;&lt;font style=&quot;font-size: 6px;&quot;&gt;Selengkapnya&lt;/font&gt;&lt;span style=&quot;font-size: 10px;&quot;&gt;..&lt;/span&gt;&lt;/span&gt;&lt;/div&gt;&lt;/font&gt;" style="whiteSpace=wrap;html=1;aspect=fixed;align=center;" vertex="1" parent="1">
          <mxGeometry x="291" y="98" width="62" height="62" as="geometry" />
        </mxCell>
        <mxCell id="iUgAuTgEXqKUAmdhrl_Q-12" value="&lt;div style=&quot;text-align: left;&quot;&gt;&lt;span style=&quot;background-color: initial;&quot;&gt;&lt;font style=&quot;font-size: 8px;&quot;&gt;6&lt;/font&gt;&lt;/span&gt;&lt;/div&gt;&lt;font style=&quot;&quot;&gt;&lt;div style=&quot;text-align: left;&quot;&gt;&lt;span style=&quot;background-color: initial;&quot;&gt;&lt;font style=&quot;font-size: 10px;&quot;&gt;Kelas&lt;/font&gt;&lt;/span&gt;&lt;/div&gt;&lt;div style=&quot;text-align: left;&quot;&gt;&lt;span style=&quot;font-size: 6px;&quot;&gt;&lt;br&gt;&lt;/span&gt;&lt;/div&gt;&lt;span style=&quot;font-size: 6px;&quot;&gt;&lt;div style=&quot;text-align: left;&quot;&gt;&lt;span style=&quot;background-color: initial;&quot;&gt;Selengkapnya..&lt;/span&gt;&lt;/div&gt;&lt;/span&gt;&lt;/font&gt;" style="whiteSpace=wrap;html=1;aspect=fixed;" vertex="1" parent="1">
          <mxGeometry x="375" y="98" width="62" height="62" as="geometry" />
        </mxCell>
        <mxCell id="iUgAuTgEXqKUAmdhrl_Q-13" value="&lt;div style=&quot;text-align: left;&quot;&gt;&lt;span style=&quot;background-color: initial;&quot;&gt;&lt;font style=&quot;font-size: 8px;&quot;&gt;47&lt;/font&gt;&lt;/span&gt;&lt;/div&gt;&lt;font style=&quot;&quot;&gt;&lt;div style=&quot;text-align: left;&quot;&gt;&lt;span style=&quot;background-color: initial;&quot;&gt;&lt;font style=&quot;font-size: 10px;&quot;&gt;Guru&lt;/font&gt;&lt;/span&gt;&lt;/div&gt;&lt;div style=&quot;text-align: left;&quot;&gt;&lt;span style=&quot;font-size: 6px;&quot;&gt;&lt;br&gt;&lt;/span&gt;&lt;/div&gt;&lt;span style=&quot;font-size: 6px;&quot;&gt;&lt;div style=&quot;text-align: left;&quot;&gt;&lt;span style=&quot;background-color: initial;&quot;&gt;Selengkapnya..&lt;/span&gt;&lt;/div&gt;&lt;/span&gt;&lt;/font&gt;" style="whiteSpace=wrap;html=1;aspect=fixed;" vertex="1" parent="1">
          <mxGeometry x="459" y="98" width="62" height="62" as="geometry" />
        </mxCell>
        <mxCell id="iUgAuTgEXqKUAmdhrl_Q-14" value="&lt;div style=&quot;text-align: left;&quot;&gt;&lt;span style=&quot;background-color: initial;&quot;&gt;&lt;font style=&quot;font-size: 8px;&quot;&gt;5&lt;/font&gt;&lt;/span&gt;&lt;/div&gt;&lt;font style=&quot;&quot;&gt;&lt;div style=&quot;text-align: left;&quot;&gt;&lt;span style=&quot;background-color: initial;&quot;&gt;&lt;font style=&quot;font-size: 8px;&quot;&gt;Mata Pelajaran&lt;/font&gt;&lt;/span&gt;&lt;/div&gt;&lt;div style=&quot;text-align: left;&quot;&gt;&lt;span style=&quot;font-size: 6px;&quot;&gt;&lt;br&gt;&lt;/span&gt;&lt;/div&gt;&lt;span style=&quot;font-size: 6px;&quot;&gt;&lt;div style=&quot;text-align: left;&quot;&gt;&lt;span style=&quot;background-color: initial;&quot;&gt;Selengkapnya..&lt;/span&gt;&lt;/div&gt;&lt;/span&gt;&lt;/font&gt;" style="whiteSpace=wrap;html=1;aspect=fixed;" vertex="1" parent="1">
          <mxGeometry x="540" y="98" width="62" height="62" as="geometry" />
        </mxCell>
        <mxCell id="iUgAuTgEXqKUAmdhrl_Q-15" value="&lt;font style=&quot;font-size: 6px;&quot;&gt;Kalender&lt;br&gt;&lt;/font&gt;" style="whiteSpace=wrap;html=1;aspect=fixed;" vertex="1" parent="1">
          <mxGeometry x="483" y="170" width="102" height="102" as="geometry" />
        </mxCell>
        <mxCell id="iUgAuTgEXqKUAmdhrl_Q-16" value="&lt;font style=&quot;font-size: 6px;&quot;&gt;Administrator&lt;/font&gt;" style="text;html=1;strokeColor=none;fillColor=none;align=center;verticalAlign=middle;whiteSpace=wrap;rounded=0;" vertex="1" parent="1">
          <mxGeometry x="585" y="33" width="60" height="30" as="geometry" />
        </mxCell>
        <mxCell id="iUgAuTgEXqKUAmdhrl_Q-17" value="&lt;font style=&quot;font-size: 8px;&quot;&gt;&lt;b&gt;SMKN1 Rawajitu&lt;/b&gt;&lt;/font&gt;" style="text;html=1;strokeColor=none;fillColor=none;align=center;verticalAlign=middle;whiteSpace=wrap;rounded=0;movable=1;resizable=1;rotatable=1;deletable=1;editable=1;locked=0;connectable=1;" vertex="1" parent="1">
          <mxGeometry x="205" y="45" width="70" height="10" as="geometry" />
        </mxCell>
        <mxCell id="iUgAuTgEXqKUAmdhrl_Q-18" value="&lt;span style=&quot;font-size: 6px;&quot;&gt;Administrator&amp;nbsp;&lt;br&gt;Online&lt;br&gt;&lt;/span&gt;" style="text;html=1;strokeColor=none;fillColor=none;align=left;verticalAlign=middle;whiteSpace=wrap;rounded=0;movable=1;resizable=1;rotatable=1;deletable=1;editable=1;locked=0;connectable=1;" vertex="1" parent="1">
          <mxGeometry x="226.5" y="55" width="43.5" height="25" as="geometry" />
        </mxCell>
        <mxCell id="iUgAuTgEXqKUAmdhrl_Q-19" value="&lt;font style=&quot;font-size: 6px;&quot;&gt;logo&lt;/font&gt;" style="whiteSpace=wrap;html=1;aspect=fixed;" vertex="1" parent="1">
          <mxGeometry x="574.5" y="43" width="20" height="20" as="geometry" />
        </mxCell>
        <mxCell id="iUgAuTgEXqKUAmdhrl_Q-20" value="&lt;font style=&quot;font-size: 6px;&quot;&gt;Garfik Kunjungan Supervisor, Guru dan Siswa&lt;br&gt;&lt;/font&gt;" style="whiteSpace=wrap;html=1;aspect=fixed;" vertex="1" parent="1">
          <mxGeometry x="325" y="170" width="102" height="102" as="geometry" />
        </mxCell>
      </root>
    </mxGraphModel>
  </diagram>
  <diagram id="Eio7NJ1avww9GbbJOYh0" name="daftar siswa">
    <mxGraphModel dx="1034" dy="511" grid="1" gridSize="10" guides="1" tooltips="1" connect="1" arrows="1" fold="1" page="1" pageScale="1" pageWidth="850" pageHeight="1100" math="0" shadow="0">
      <root>
        <mxCell id="0" />
        <mxCell id="1" parent="0" />
        <mxCell id="StqZxQqJe-h2ThQnpdKc-1" value="" style="rounded=0;whiteSpace=wrap;html=1;movable=1;resizable=1;rotatable=1;deletable=1;editable=1;locked=0;connectable=1;" parent="1" vertex="1">
          <mxGeometry x="200" y="40" width="440" height="240" as="geometry" />
        </mxCell>
        <mxCell id="StqZxQqJe-h2ThQnpdKc-2" value="" style="rounded=0;whiteSpace=wrap;html=1;movable=1;resizable=1;rotatable=1;deletable=1;editable=1;locked=0;connectable=1;" parent="1" vertex="1">
          <mxGeometry x="312" y="60" width="227" height="210" as="geometry" />
        </mxCell>
        <mxCell id="StqZxQqJe-h2ThQnpdKc-3" value="&lt;font style=&quot;&quot;&gt;&lt;b&gt;&lt;span style=&quot;font-size: 10px;&quot;&gt;Form Pendaftaran Siswa Baru&lt;/span&gt;&lt;br&gt;&lt;span style=&quot;font-size: 10px;&quot;&gt;SMKN1 Rawajitu Selatan&lt;/span&gt;&lt;/b&gt;&lt;br&gt;&lt;/font&gt;" style="text;html=1;strokeColor=none;fillColor=none;align=center;verticalAlign=middle;whiteSpace=wrap;rounded=0;" parent="1" vertex="1">
          <mxGeometry x="351" y="67" width="147" height="20" as="geometry" />
        </mxCell>
        <mxCell id="StqZxQqJe-h2ThQnpdKc-4" value="" style="rounded=0;whiteSpace=wrap;html=1;align=left;shadow=0;" parent="1" vertex="1">
          <mxGeometry x="320" y="110" width="210" height="10" as="geometry" />
        </mxCell>
        <mxCell id="StqZxQqJe-h2ThQnpdKc-5" value="" style="rounded=0;whiteSpace=wrap;html=1;align=left;shadow=0;" parent="1" vertex="1">
          <mxGeometry x="320" y="133" width="210" height="10" as="geometry" />
        </mxCell>
        <mxCell id="StqZxQqJe-h2ThQnpdKc-7" value="&lt;span style=&quot;font-size: 8px;&quot;&gt;Kirin&lt;/span&gt;" style="rounded=1;whiteSpace=wrap;html=1;fillColor=#CCCCCC;" parent="1" vertex="1">
          <mxGeometry x="402" y="236" width="50" height="20" as="geometry" />
        </mxCell>
        <mxCell id="StqZxQqJe-h2ThQnpdKc-8" value="&lt;font style=&quot;&quot;&gt;&lt;font style=&quot;font-size: 6px;&quot;&gt;Nama Lengkap:&lt;/font&gt;&lt;br&gt;&lt;/font&gt;" style="text;html=1;strokeColor=none;fillColor=none;align=center;verticalAlign=middle;whiteSpace=wrap;rounded=0;" parent="1" vertex="1">
          <mxGeometry x="269" y="93" width="147" height="20" as="geometry" />
        </mxCell>
        <mxCell id="StqZxQqJe-h2ThQnpdKc-9" value="&lt;font style=&quot;&quot;&gt;&lt;font style=&quot;font-size: 6px;&quot;&gt;Nisn:&lt;/font&gt;&lt;br&gt;&lt;/font&gt;" style="text;html=1;strokeColor=none;fillColor=none;align=center;verticalAlign=middle;whiteSpace=wrap;rounded=0;" parent="1" vertex="1">
          <mxGeometry x="255" y="116" width="147" height="20" as="geometry" />
        </mxCell>
        <mxCell id="StqZxQqJe-h2ThQnpdKc-10" value="" style="rounded=0;whiteSpace=wrap;html=1;align=left;shadow=0;" parent="1" vertex="1">
          <mxGeometry x="321" y="153" width="210" height="10" as="geometry" />
        </mxCell>
        <mxCell id="StqZxQqJe-h2ThQnpdKc-11" value="&lt;font style=&quot;&quot;&gt;&lt;font style=&quot;font-size: 6px;&quot;&gt;Jurusan&lt;/font&gt;&lt;br&gt;&lt;/font&gt;" style="text;html=1;strokeColor=none;fillColor=none;align=center;verticalAlign=middle;whiteSpace=wrap;rounded=0;" parent="1" vertex="1">
          <mxGeometry x="259" y="136" width="147" height="20" as="geometry" />
        </mxCell>
        <mxCell id="StqZxQqJe-h2ThQnpdKc-12" value="" style="rounded=0;whiteSpace=wrap;html=1;align=left;shadow=0;" parent="1" vertex="1">
          <mxGeometry x="321" y="173" width="210" height="10" as="geometry" />
        </mxCell>
        <mxCell id="StqZxQqJe-h2ThQnpdKc-13" value="&lt;font style=&quot;&quot;&gt;&lt;font style=&quot;font-size: 6px;&quot;&gt;Asal Sekolah:&lt;/font&gt;&lt;br&gt;&lt;/font&gt;" style="text;html=1;strokeColor=none;fillColor=none;align=center;verticalAlign=middle;whiteSpace=wrap;rounded=0;" parent="1" vertex="1">
          <mxGeometry x="268" y="157" width="147" height="20" as="geometry" />
        </mxCell>
        <mxCell id="StqZxQqJe-h2ThQnpdKc-14" value="" style="rounded=0;whiteSpace=wrap;html=1;align=left;shadow=0;" parent="1" vertex="1">
          <mxGeometry x="321" y="194" width="210" height="10" as="geometry" />
        </mxCell>
        <mxCell id="StqZxQqJe-h2ThQnpdKc-15" value="&lt;font style=&quot;&quot;&gt;&lt;font style=&quot;font-size: 6px;&quot;&gt;Nomor Telepon:&lt;/font&gt;&lt;br&gt;&lt;/font&gt;" style="text;html=1;strokeColor=none;fillColor=none;align=center;verticalAlign=middle;whiteSpace=wrap;rounded=0;" parent="1" vertex="1">
          <mxGeometry x="271" y="177" width="147" height="20" as="geometry" />
        </mxCell>
        <mxCell id="StqZxQqJe-h2ThQnpdKc-16" value="" style="rounded=0;whiteSpace=wrap;html=1;align=left;shadow=0;" parent="1" vertex="1">
          <mxGeometry x="322" y="214" width="210" height="10" as="geometry" />
        </mxCell>
        <mxCell id="StqZxQqJe-h2ThQnpdKc-17" value="&lt;font style=&quot;&quot;&gt;&lt;font style=&quot;font-size: 6px;&quot;&gt;Alamat:&lt;/font&gt;&lt;br&gt;&lt;/font&gt;" style="text;html=1;strokeColor=none;fillColor=none;align=center;verticalAlign=middle;whiteSpace=wrap;rounded=0;" parent="1" vertex="1">
          <mxGeometry x="262" y="198" width="147" height="20" as="geometry" />
        </mxCell>
      </root>
    </mxGraphModel>
  </diagram>
</mxfile>
